<?xml version="1.0" encoding="UTF-8" standalone="no"?>
<!-- Created with Inkscape (http://www.inkscape.org/) -->

<svg
   xmlns:dc="http://purl.org/dc/elements/1.1/"
   xmlns:cc="http://creativecommons.org/ns#"
   xmlns:rdf="http://www.w3.org/1999/02/22-rdf-syntax-ns#"
   xmlns:svg="http://www.w3.org/2000/svg"
   xmlns="http://www.w3.org/2000/svg"
   xmlns:xlink="http://www.w3.org/1999/xlink"
   xmlns:sodipodi="http://sodipodi.sourceforge.net/DTD/sodipodi-0.dtd"
   xmlns:inkscape="http://www.inkscape.org/namespaces/inkscape"
   width="1280"
   height="1024"
   viewBox="0 0 338.66666 270.93333"
   version="1.1"
   id="svg8"
   inkscape:version="0.92.2 2405546, 2018-03-11"
   sodipodi:docname="template.svg"
   inkscape:export-filename="../design/backdrop.png"
   inkscape:export-xdpi="96"
   inkscape:export-ydpi="96">
  <defs
     id="defs2">
    <linearGradient
       inkscape:collect="always"
       id="linearGradient1262">
      <stop
         style="stop-color:#ffffff;stop-opacity:0.70588237"
         offset="0"
         id="stop1258" />
      <stop
         style="stop-color:#ffffff;stop-opacity:0;"
         offset="1"
         id="stop1260" />
    </linearGradient>
    <linearGradient
       inkscape:collect="always"
       xlink:href="#linearGradient1262"
       id="linearGradient1264"
       x1="1.1129012"
       y1="153.31863"
       x2="1.1129012"
       y2="65.835068"
       gradientUnits="userSpaceOnUse"
       gradientTransform="matrix(27.67185,0,0,1,188.99417,-8.7060547e-5)" />
  </defs>
  <sodipodi:namedview
     id="base"
     pagecolor="#ffffff"
     bordercolor="#666666"
     borderopacity="1.0"
     inkscape:pageopacity="0.0"
     inkscape:pageshadow="2"
     inkscape:zoom="0.48547039"
     inkscape:cx="307.45257"
     inkscape:cy="61.064288"
     inkscape:document-units="mm"
     inkscape:current-layer="layer1"
     showgrid="false"
     units="px"
     inkscape:window-width="2558"
     inkscape:window-height="1361"
     inkscape:window-x="0"
     inkscape:window-y="25"
     inkscape:window-maximized="1" />
  <metadata
     id="metadata5">
    <rdf:RDF>
      <cc:Work
         rdf:about="">
        <dc:format>image/svg+xml</dc:format>
        <dc:type
           rdf:resource="http://purl.org/dc/dcmitype/StillImage" />
        <dc:title />
      </cc:Work>
    </rdf:RDF>
  </metadata>
  <g
     inkscape:label="Ebene 1"
     inkscape:groupmode="layer"
     id="layer1"
     transform="translate(0,-26.066725)">
    <g
       id="g1607"
       transform="matrix(0.33072917,0,0,0.36124444,0.00379739,26.066725)">
	<path
   id="path1317"
   d="m 0,0 h 63 c 0,11.7 0,23.3 0,35 -21,0 -42,0 -63,0 z"
   inkscape:connector-curvature="0"
   style="fill:#935031" />

	<path
   id="path1319"
   d="m 910,0 h 114 v 35 c -38,0 -76,0 -114,0 0,-11.7 0,-23.3 0,-35 z"
   inkscape:connector-curvature="0"
   style="fill:#935031" />

	<path
   id="path1321"
   d="m 420,42 c 44.3,0 88.7,0 133,0 0,11.7 0,23.3 0,35 -44.3,0 -88.7,0 -133,0 0,-11.7 0,-23.3 0,-35 z"
   inkscape:connector-curvature="0"
   style="fill:#935031" />

	<path
   id="path1323"
   d="m 0,84 c 21,0 42,0 63,0 0,11.7 0,23.3 0,35 -21,0 -42,0 -63,0 z"
   inkscape:connector-curvature="0"
   style="fill:#935031" />

	<path
   id="path1325"
   d="m 70,84 c 44.3,0 88.7,0 133,0 0,11.7 0,23.3 0,35 -44.3,0 -88.7,0 -133,0 0,-11.7 0,-23.3 0,-35 z"
   inkscape:connector-curvature="0"
   style="fill:#935031" />

	<path
   id="path1327"
   d="m 70,168 c 44.3,0 88.7,0 133,0 0,11.7 0,23.3 0,35 -44.3,0 -88.7,0 -133,0 0,-11.7 0,-23.3 0,-35 z"
   inkscape:connector-curvature="0"
   style="fill:#935031" />

	<path
   id="path1329"
   d="m 910,168 c 38,0 76,0 114,0 v 35 c -38,0 -76,0 -114,0 0,-11.7 0,-23.3 0,-35 z"
   inkscape:connector-curvature="0"
   style="fill:#935031" />

	<path
   id="path1331"
   d="m 140,210 c 44.3,0 88.7,0 133,0 0,11.7 0,23.3 0,35 -44.3,0 -88.7,0 -133,0 0,-11.7 0,-23.3 0,-35 z"
   inkscape:connector-curvature="0"
   style="fill:#935031" />

	<path
   id="path1333"
   d="m 420,210 c 44.3,0 88.7,0 133,0 0,11.6 0,23.3 0,35 -44.3,0 -88.7,0 -133,0 0,-11.7 0,-23.3 0,-35 z"
   inkscape:connector-curvature="0"
   style="fill:#935031" />

	<path
   id="path1335"
   d="m 0,336 c 21,0 42,0 63,0 0,11.7 0,23.3 0,35 -21,0 -42,0 -63,0 z"
   inkscape:connector-curvature="0"
   style="fill:#935031" />

	<path
   id="path1337"
   d="m 700,378 c 44.3,0 88.7,0 133,0 0,11.7 0,23.3 0,35 -44.3,0 -88.7,0 -133,0 0,-11.7 0,-23.3 0,-35 z"
   inkscape:connector-curvature="0"
   style="fill:#935031" />

	<path
   id="path1339"
   d="m 840,378 c 44.3,0 88.7,0 133,0 0,11.7 0,23.3 0,35 -44.3,0 -88.7,0 -133,0 0,-11.7 0,-23.3 0,-35 z"
   inkscape:connector-curvature="0"
   style="fill:#935031" />

	<path
   id="path1341"
   d="m 630,420 c 44.3,0 88.7,0 133,0 0,11.7 0,23.3 0,35 -44.3,0 -88.7,0 -133,0 0,-11.7 0,-23.3 0,-35 z"
   inkscape:connector-curvature="0"
   style="fill:#935031" />

	<path
   id="path1343"
   d="m 140,462 c 44.3,0 88.7,0 133,0 0,11.7 0,23.3 0,35 -44.3,0 -88.7,0 -133,0 0,-11.7 0,-23.3 0,-35 z"
   inkscape:connector-curvature="0"
   style="fill:#935031" />

	<path
   id="path1345"
   d="m 280,462 c 44.3,0 88.7,0 133,0 0,11.7 0,23.3 0,35 -44.3,0 -88.7,0 -133,0 0,-11.7 0,-23.3 0,-35 z"
   inkscape:connector-curvature="0"
   style="fill:#935031" />

	<path
   id="path1347"
   d="m 560,462 c 44.3,0 88.7,0 133,0 0,11.7 0,23.3 0,35 -44.3,0 -88.7,0 -133,0 0,-11.7 0,-23.3 0,-35 z"
   inkscape:connector-curvature="0"
   style="fill:#935031" />

	<path
   id="path1349"
   d="m 980,462 c 14.7,0 29.3,0 44,0 v 35 c -14.7,0 -29.3,0 -44,0 0,-11.7 0,-23.3 0,-35 z"
   inkscape:connector-curvature="0"
   style="fill:#935031" />

	<path
   id="path1351"
   d="m 350,504 c 44.3,0 88.7,0 133,0 0,11.7 0,23.3 0,35 -44.3,0 -88.7,0 -133,0 0,-11.7 0,-23.3 0,-35 z"
   inkscape:connector-curvature="0"
   style="fill:#935031" />

	<path
   id="path1353"
   d="m 350,588 c 44.3,0 88.7,0 133,0 0,11.7 0,23.3 0,35 -44.3,0 -88.7,0 -133,0 0,-11.7 0,-23.3 0,-35 z"
   inkscape:connector-curvature="0"
   style="fill:#935031" />

	<path
   id="path1355"
   d="m 0,630 c 44.3,0 88.7,0 133,0 0.1,11.7 0,23.3 0,35 -44.3,0 -88.7,0 -133,0 z"
   inkscape:connector-curvature="0"
   style="fill:#935031" />

	<path
   id="path1357"
   d="m 140,630 c 44.3,0 88.7,0 133,0 0,11.7 0,23.3 0,35 -44.3,0 -88.7,0 -133,0 0,-11.7 0,-23.3 0,-35 z"
   inkscape:connector-curvature="0"
   style="fill:#935031" />

	<path
   id="path1359"
   d="m 700,630 c 44.3,0 88.7,0 133,0 0,11.7 0,23.3 0,35 -44.3,0 -88.7,0 -133,0 0,-11.7 0,-23.3 0,-35 z"
   inkscape:connector-curvature="0"
   style="fill:#935031" />

	<path
   id="path1361"
   d="m 840,630 c 44.3,0 88.6,0 133,0 0,11.7 0,23.3 0,35 -44.3,0 -88.7,0 -133,0 0,-11.7 0,-23.3 0,-35 z"
   inkscape:connector-curvature="0"
   style="fill:#935031" />

	<path
   id="path1363"
   d="m 980,630 c 14.7,0 29.3,0 44,0 v 35 c -14.7,0 -29.3,0 -44,0 0,-11.7 0,-23.3 0,-35 z"
   inkscape:connector-curvature="0"
   style="fill:#935031" />

	<path
   id="path1365"
   d="m 0,672 c 21,0 42,0 63,0 0,11.7 0,23.3 0,35 -21,0 -42,0 -63,0 z"
   inkscape:connector-curvature="0"
   style="fill:#935031" />

	<path
   id="path1367"
   d="m 70,672 c 44.3,0 88.7,0 133,0 0,11.7 0,23.3 0,35 -44.3,0 -88.7,0 -133,0 0,-11.7 0,-23.3 0,-35 z"
   inkscape:connector-curvature="0"
   style="fill:#935031" />

	<path
   id="path1369"
   d="m 0,714 c 44.3,0 88.7,0 133,0 0,11.7 0,23.3 0,35 -44.3,0 -88.7,0 -133,0 z"
   inkscape:connector-curvature="0"
   style="fill:#935031" />

	<path
   id="path1371"
   d="m 63,0 h 7 c 0,11.7 0,23.3 0,35 44.3,0 88.7,0 133,0 0,-11.7 0,-23.3 0,-35 h 7 c 0,11.7 0,23.3 0,35 44.3,0 88.7,0 133,0 0,-11.7 0,-23.3 0,-35 h 7 c 0,11.7 0,23.3 0,35 44.3,0 88.7,0 133,0 0,-11.7 0,-23.3 0,-35 h 7 c 0,11.7 0,23.3 0,35 44.3,0 88.7,0 133,0 0.1,-11.7 0,-23.3 0,-35 h 7 c 0,11.7 0,23.3 0,35 44.3,0 88.7,0 133,0 0,-11.7 0,-23.3 0,-35 h 7 c 0,11.7 0,23.3 0,35 44.3,0 88.7,0 133,0 0,-11.7 0,-23.3 0,-35 h 7 c 0,11.7 0,23.3 0,35 38,0 76,0 114,0 v 7 c -14.7,0 -29.3,0 -44,0 0,11.7 0,23.3 0,35 14.7,0 29.3,0 44,0 v 7 c -38,0 -76,0 -114,0 0,11.7 0,23.3 0,35 38,0 76,0 114,0 v 7 c -14.7,0 -29.3,0 -44,0 0,11.7 0,23.3 0,35 14.7,0 29.3,0 44,0 v 7 c -38,0 -76,0 -114,0 0,11.7 0,23.3 0,35 38,0 76,0 114,0 v 7 c -14.7,0 -29.3,0 -44,0 0,11.7 0,23.3 0,35 14.7,0 29.3,0 44,0 v 7 c -38,0 -76,0 -114,0 0,11.7 0,23.3 0,35 38,0 76,0 114,0 v 7 c -14.7,0 -29.3,0 -44,0 0,11.7 0,23.3 0,35 14.7,0 29.3,0 44,0 v 7 c -38,0 -76,0 -114,0 0,11.7 0,23.3 0,35 38,0 76,0 114,0 v 7 c -14.7,0 -29.3,0 -44,0 0,11.7 0,23.3 0,35 14.7,0 29.3,0 44,0 v 7 c -38,0 -76,0 -114,0 0,11.7 0,23.3 0,35 38,0 76,0 114,0 v 7 c -14.7,0 -29.3,0 -44,0 0,11.7 0,23.3 0,35 14.7,0 29.3,0 44,0 v 7 c -38,0 -76,0 -114,0 0,11.7 0,23.3 0,35 38,0 76,0 114,0 v 7 c -14.7,0 -29.3,0 -44,0 0,11.7 0,23.3 0,35 14.7,0 29.3,0 44,0 v 7 c -38,0 -76,0 -114,0 0,11.7 0,23.3 0,35 38,0 76,0 114,0 v 7 c -14.7,0 -29.3,0 -44,0 0,11.7 0,23.3 0,35 14.7,0 29.3,0 44,0 v 7 c -38,0 -76,0 -114,0 0,11.7 0,23.3 0,35 38,0 76,0 114,0 v 7 c -14.7,0 -29.3,0 -44,0 0,11.7 0,23.3 0,35 14.7,0.1 29.3,0 44,0 v 1 H 0 v -1 c 44.3,0 88.7,0 133,0 0,-11.7 0,-23.3 0,-35 -44.3,0 -88.7,0 -133,0 v -7 c 21,0 42,0 63,0 0,-11.7 0,-23.3 0,-35 -21,0 -42,0 -63,0 v -7 c 44.3,0 88.7,0 133,0 0,-11.7 0,-23.3 0,-35 -44.3,0 -88.6,0 -133,0 v -7 c 21,0 42,0 63,0 0,-11.7 0,-23.3 0,-35 -21,0 -42,0 -63,0 v -7 c 44.3,0 88.7,0 133,0 0,-11.7 0,-23.3 0,-35 -44.3,0 -88.7,0 -133,0 v -7 c 21,0 42,0 63,0 0,-11.7 0,-23.3 0,-35 -21,0 -42,0 -63,0 v -7 c 44.3,0 88.7,0 133,0 0,-11.7 0,-23.3 0,-35 -44.3,0 -88.7,0 -133,0 v -7 c 21,0 42,0 63,0 0,-11.7 0,-23.3 0,-35 -21,-0.1 -42,0 -63,0 v -7 c 44.3,0 88.7,0 133,0 0,-11.7 0,-23.3 0,-35 -44.3,0 -88.7,0 -133,0 v -7 c 21,0 42,0 63,0 0,-11.7 0,-23.3 0,-35 -21,0 -42,0 -63,0 v -7 c 44.3,0 88.7,0 133,0 0,-11.7 0,-23.3 0,-35 -44.3,0 -88.6,0 -133,0 v -7 c 21,0 42,0 63,0 0,-11.7 0,-23.3 0,-35 -21,0 -42,0 -63,0 v -7 c 44.3,0 88.7,0 133,0 0,-11.7 0,-23.3 0,-35 -44.3,0 -88.7,0 -133,0 v -7 c 21,0 42,0 63,0 0,-11.7 0,-23.3 0,-35 -21,0 -42,0 -63,0 v -7 c 44.3,0 88.7,0 133,0 0,-11.7 0,-23.3 0,-35 -44.3,0 -88.7,0 -133,0 v -7 c 21,0 42,0 63,0 0,-11.7 0,-23.3 0,-35 -21,0 -42,0 -63,0 v -7 c 44.3,0 88.7,0 133,0 0,-11.7 0,-23.3 0,-35 -44.3,0 -88.7,0 -133,0 v -7 c 21,0 42,0 63,0 0,-11.7 0,-23.3 0,-35 m 77,42 c 0,11.7 0,23.3 0,35 44.3,0 88.7,0 133,0 0,-11.7 0,-23.3 0,-35 -44.3,0 -88.7,0 -133,0 m 140,0 c 0,11.7 0,23.3 0,35 44.3,0 88.6,0 133,0 0,-11.7 0,-23.3 0,-35 -44.3,0 -88.7,0 -133,0 m 140,0 c 0,11.7 0,23.3 0,35 44.3,0 88.7,0 133,0 0,-11.7 0,-23.3 0,-35 -44.3,0 -88.7,0 -133,0 m 140,0 c 0,11.7 0,23.3 0,35 44.3,0 88.7,0 133,0 0,-11.7 0,-23.3 0,-35 -44.3,0 -88.7,0 -133,0 m 140,0 c 0,11.7 0,23.3 0,35 44.3,0 88.6,0 133,0 0,-11.7 0,-23.3 0,-35 -44.3,0 -88.7,0 -133,0 m 140,0 c 0,11.7 0,23.3 0,35 44.3,0 88.7,0 133,0 0,-11.7 0,-23.3 0,-35 -44.3,0 -88.7,0 -133,0 M 70,84 c 0,11.7 0,23.3 0,35 44.3,0 88.7,0 133,0 0,-11.7 0,-23.3 0,-35 -44.3,0 -88.7,0 -133,0 m 140,0 c 0,11.7 0,23.3 0,35 44.3,0 88.7,0 133,0 0,-11.7 0,-23.3 0,-35 -44.3,0 -88.7,0 -133,0 m 140,0 c 0,11.7 0,23.3 0,35 44.3,0 88.7,0 133,0 0,-11.7 0,-23.3 0,-35 -44.3,0 -88.7,0 -133,0 m 140,0 c 0,11.7 0,23.3 0,35 44.3,0 88.7,0 133,0 0,-11.7 0,-23.3 0,-35 -44.3,0 -88.7,0 -133,0 m 140,0 c 0,11.7 0,23.3 0,35 44.3,0 88.7,0 133,0 0,-11.7 0,-23.4 0,-35 -44.3,0 -88.7,0 -133,0 m 140,0 c 0,11.7 0,23.3 0,35 44.3,0 88.7,0 133,0 0,-11.7 0,-23.3 0,-35 -44.3,0 -88.7,0 -133,0 m -630,42 c 0,11.7 0,23.3 0,35 44.3,0 88.7,0 133,0 0,-11.7 0,-23.3 0,-35 -44.3,0 -88.6,0 -133,0 m 140,0 c 0,11.7 0,23.3 0,35 44.3,0 88.7,0 133,0 0,-11.7 0,-23.3 0,-35 -44.3,0 -88.7,0 -133,0 m 140,0 c 0,11.7 0,23.3 0,35 44.3,0 88.7,0 133,0 0,-11.7 0,-23.3 0,-35 -44.3,0 -88.7,0 -133,0 m 140,0 c 0,11.7 0,23.3 0,35 44.3,0 88.6,0 133,0 0,-11.7 0,-23.3 0,-35 -44.3,0 -88.7,0 -133,0 m 140,0 c 0,11.7 0,23.3 0,35 44.3,0 88.7,0 133,0 0,-11.7 0,-23.3 0,-35 -44.3,0 -88.7,0 -133,0 m 140,0 c -0.1,11.7 0,23.3 0,35 44.3,0 88.7,0 133,0 0,-11.7 0,-23.3 0,-35 -44.3,0 -88.7,0 -133,0 M 70,168 c 0,11.7 0,23.3 0,35 44.3,0 88.7,0 133,0 0,-11.7 0,-23.3 0,-35 -44.3,0 -88.7,0 -133,0 m 140,0 c 0,11.7 0,23.3 0,35 44.3,0 88.7,0 133,0 0,-11.7 0,-23.3 0,-35 -44.3,0 -88.7,0 -133,0 m 140,0 c 0,11.7 0,23.3 0,35 44.3,0 88.7,0 133,0 0,-11.7 0,-23.3 0,-35 -44.3,0 -88.7,0 -133,0 m 140,0 c 0,11.7 0,23.3 0,35 44.3,0 88.7,0 133,0 0,-11.7 0,-23.3 0,-35 -44.3,0 -88.7,0 -133,0 m 140,0 c 0,11.7 0,23.3 0,35 44.3,0 88.7,0 133,0 0,-11.7 0,-23.3 0,-35 -44.3,0 -88.7,0 -133,0 m 140,0 c 0,11.7 0,23.3 0,35 44.3,0 88.7,0 133,0 0,-11.7 0,-23.3 0,-35 -44.3,0 -88.7,0 -133,0 m -630,42 c 0,11.7 0,23.3 0,35 44.3,0 88.7,0 133,0 0,-11.7 0,-23.3 0,-35 -44.3,0 -88.7,0 -133,0 m 140,0 c 0,11.7 0,23.3 0,35 44.3,0 88.7,0 133,0 0,-11.7 0,-23.3 0,-35 -44.3,0 -88.7,0 -133,0 m 140,0 c 0,11.6 0,23.3 0,35 44.3,0 88.7,0 133,0 0,-11.7 0,-23.3 0,-35 -44.3,0 -88.7,0 -133,0 m 140,0 c 0,11.7 0,23.3 0,35 44.3,0 88.7,0 133,0 0,-11.7 0,-23.3 0,-35 -44.3,0 -88.7,0 -133,0 m 140,0 c -0.1,11.7 0,23.3 0,35 44.3,0.1 88.7,0 133,0 0,-11.7 0,-23.3 0,-35 -44.3,0 -88.7,0 -133,0 m 140,0 c -0.1,11.7 0,23.3 0,35 44.3,0 88.7,0 133,0 0,-11.7 0,-23.3 0,-35 -44.3,0 -88.7,0 -133,0 M 70,252 c 0,11.7 0,23.3 0,35 44.3,0 88.7,0 133,0 0,-11.7 0,-23.3 0,-35 -44.3,0 -88.7,0 -133,0 m 140,0 c 0,11.7 0,23.3 0,35 44.3,0 88.7,0 133,0 0,-11.7 0,-23.3 0,-35 -44.3,0 -88.7,0 -133,0 m 140,0 c 0,11.7 0,23.3 0,35 44.3,0 88.6,0 133,0 0,-11.7 0,-23.3 0,-35 -44.3,0 -88.7,0 -133,0 m 140,0 c 0,11.7 0,23.3 0,35 44.3,0.1 88.7,0 133,0 0,-11.7 0,-23.3 0,-35 -44.3,0 -88.7,0 -133,0 m 140,0 c 0,11.7 0,23.3 0,35 44.3,0 88.7,0 133,0 0,-11.7 0,-23.3 0,-35 -44.3,0 -88.7,0 -133,0 m 140,0 c 0,11.7 0,23.3 0,34.9 44.3,0.1 88.7,0 133,0 0,-11.7 0,-23.3 0,-35 -44.3,0.1 -88.7,0.1 -133,0.1 m -630,42 c 0,11.7 0,23.3 0,35 44.3,0 88.7,0 133,0 0,-11.7 0,-23.3 0,-35 -44.4,0 -88.7,0 -133,0 m 140,0 c 0,11.7 0,23.3 0,35 44.3,0 88.6,0 133,0 0,-11.7 0,-23.3 0,-35 -44.3,0 -88.7,0 -133,0 m 140,0 c 0,11.7 0,23.3 0,35 44.3,0 88.6,0 133,0 0,-11.7 0,-23.3 0,-35 -44.3,0 -88.7,0 -133,0 m 140,0 c 0,11.7 0,23.3 0,35 44.3,0 88.7,0 133,0 0,-11.7 0,-23.3 0,-35 -44.3,0 -88.7,0 -133,0 m 140,0 c 0,11.7 0,23.3 0,35 44.3,0 88.7,0 133,0 0,-11.7 0,-23.3 0,-35 -44.3,0 -88.7,0 -133,0 m 140,0 c 0,11.7 0,23.3 0,35 44.3,0 88.7,0 133,0 0,-11.7 0,-23.3 0,-35 -44.3,0 -88.7,0 -133,0 M 70,336 c 0,11.7 0,23.3 0,35 44.3,0 88.7,0 133,0 0,-11.7 0,-23.3 0,-35 -44.3,0 -88.7,0 -133,0 m 140,0 c 0,11.7 0,23.3 0,35 44.3,0 88.7,0 133,0 0,-11.7 0,-23.3 0,-35 -44.3,0 -88.7,0 -133,0 m 140,0 c 0,11.7 0,23.3 0,35 44.3,0 88.7,0 133,0 0,-11.7 0,-23.3 0,-35 -44.3,0 -88.7,0 -133,0 m 140,0 c -0.1,11.7 0,23.3 0,35 44.3,0 88.7,0 133,0 0,-11.7 0,-23.3 0,-35 -44.3,0 -88.6,0 -133,0 m 140,0 c 0,11.7 0,23.3 0,35 44.3,0 88.7,0 133,0 0.1,-11.7 0,-23.3 0,-35 -44.3,0 -88.7,0 -133,0 m 140,0 c 0,11.7 0,23.3 0,35 44.3,0 88.7,0 133,0 0,-11.7 0,-23.3 0,-35 -44.3,0 -88.7,0 -133,0 m -630,42 c 0,11.7 0,23.3 0,35 44.3,0 88.7,0 133,0 0,-11.7 0,-23.3 0,-35 -44.3,0 -88.7,0 -133,0 m 140,0 c 0,11.7 0,23.3 0,35 44.3,0 88.7,0 133,0 0,-11.7 0,-23.3 0,-35 -44.4,0 -88.7,0 -133,0 m 140,0 c 0,11.7 0,23.3 0,35 44.3,0 88.6,0 133,0 0.1,-11.7 0,-23.3 0,-35 -44.3,0 -88.7,0 -133,0 m 140,0 c 0,11.6 0,23.3 0,35 44.3,0.1 88.7,0 133,0 0,-11.7 0,-23.3 0,-35 -44.3,0 -88.7,0 -133,0 m 140,0 c 0,11.7 0,23.3 0,35 44.3,0 88.7,0 133,0 0,-11.7 0,-23.3 0,-35 -44.3,0 -88.7,0 -133,0 m 140,0 c 0,11.7 0,23.3 0,35 44.3,0 88.7,0 133,0 0,-11.7 0,-23.3 0,-35 -44.3,0 -88.7,0 -133,0 M 70,420 c 0,11.7 0,23.3 0,35 44.3,0 88.7,0 133,0 0,-11.7 0,-23.3 0,-35 -44.3,0 -88.7,0 -133,0 m 140,0 c 0,11.7 0,23.3 0,35 44.3,0 88.7,0 133,0 0,-11.7 0,-23.3 0,-35 -44.3,0 -88.7,0 -133,0 m 140,0 c 0,11.7 -0.1,23.3 0,35 44.3,0 88.7,0 133,0 0,-11.7 0,-23.3 0,-35 -44.3,0 -88.7,0 -133,0 m 140,0 c 0,11.7 0,23.3 0,35 44.3,0 88.7,0 133,0 0,-11.7 0,-23.3 0,-35 -44.3,0 -88.7,0 -133,0 m 140,0 c 0,11.7 0,23.3 0,35 44.3,0 88.6,0 133,0 0,-11.7 0,-23.3 0,-35 -44.3,0 -88.7,0 -133,0 m 140,0 c 0,11.7 0,23.3 0,35 44.3,0 88.7,0 133,0 0,-11.7 0,-23.3 0,-35 -44.3,0 -88.7,0 -133,0 m -630,42 c 0,11.7 0,23.3 0,35 44.3,0 88.7,0 133,0 0,-11.7 0,-23.3 0,-35 -44.3,0 -88.7,0 -133,0 m 140,0 c 0,11.7 0,23.3 0,35 44.3,0 88.7,0 133,0 0,-11.7 0,-23.3 0,-35 -44.3,0 -88.7,0 -133,0 m 140,0 c 0,11.7 0,23.3 0,35 44.3,0 88.6,0 133,0 0,-11.7 0,-23.3 0,-35 -44.3,0 -88.7,0 -133,0 m 140,0 c 0,11.7 0,23.3 0,35 44.3,0 88.7,0 133,0 0,-11.7 0,-23.3 0,-35 -44.3,0 -88.7,0 -133,0 m 140,0 c 0,11.7 0,23.3 0,35 44.3,0 88.7,0 133,0 0,-11.7 0,-23.3 0,-35 -44.3,0 -88.7,0 -133,0 m 140,0 c 0,11.6 0,23.3 0,35 44.3,0 88.6,0 133,0 0.1,-11.7 0,-23.3 0,-35 -44.3,0 -88.7,0 -133,0 M 70,504 c 0,11.7 0,23.3 0,35 44.3,0 88.7,0 133,0 0,-11.7 0,-23.3 0,-35 -44.3,0 -88.7,0 -133,0 m 140,0 c 0,11.7 0,23.3 0,35 44.3,0 88.7,0 133,0 0,-11.7 0,-23.3 0,-35 -44.3,0 -88.6,0 -133,0 m 140,0 c 0,11.7 0,23.3 0,35 44.3,0 88.7,0 133,0 0,-11.7 0,-23.3 0,-35 -44.3,0 -88.7,0 -133,0 m 140,0 c 0,11.7 0,23.3 0,35 44.3,0 88.6,0 133,0 0,-11.7 0,-23.3 0,-35 -44.3,0 -88.7,0 -133,0 m 140,0 c 0,11.7 0,23.3 0,35 44.3,0 88.7,0 133,0 0,-11.7 0,-23.3 0,-35 -44.3,0 -88.7,0 -133,0 m 140,0 c 0,11.7 0,23.3 0,35 44.3,0 88.7,0 133,0 0,-11.7 0,-23.3 0,-35 -44.3,0 -88.7,0 -133,0 m -630,42 c 0,11.7 0,23.3 0,35 44.3,0 88.7,0 133,0 0,-11.7 0,-23.3 0,-35 -44.3,0 -88.7,0 -133,0 m 140,0 c 0,11.7 0,23.3 0,35 44.3,0 88.7,0 133,0 0,-11.7 0,-23.3 0,-35 -44.3,0 -88.7,0 -133,0 m 140,0 c 0,11.7 0,23.3 0,35 44.3,0 88.6,0 133,0 0,-11.7 0,-23.3 0,-35 -44.3,0 -88.7,0 -133,0 m 140,0 c 0,11.7 0,23.3 0,35 44.3,0 88.6,0 133,0 0,-11.7 0,-23.3 0,-35 -44.3,0 -88.7,0 -133,0 m 140,0 c 0,11.7 0,23.3 0,35 44.3,0 88.7,0 133,0 0,-11.7 0,-23.3 0,-35 -44.3,0 -88.7,0 -133,0 m 140,0 c 0,11.7 0,23.3 0,35 44.3,0 88.6,0 133,0 0,-11.7 0,-23.3 0,-35 -44.3,0 -88.7,0 -133,0 M 70,588 c 0,11.7 0,23.3 0,35 44.3,0 88.7,0 133,0 0,-11.7 0,-23.3 0,-35 -44.3,0 -88.7,0 -133,0 m 140,0 c 0,11.7 0,23.3 0,35 44.3,0 88.7,0 133,0 0,-11.7 0,-23.3 0,-35 -44.3,0 -88.7,0 -133,0 m 140,0 c 0,11.7 0,23.3 0,35 44.3,0 88.7,0 133,0 0,-11.7 0,-23.3 0,-35 -44.3,0 -88.7,0 -133,0 m 140,0 c 0,11.7 0,23.3 0,35 44.3,0 88.7,0 133,0 0,-11.7 0,-23.3 0,-35 -44.3,0 -88.7,0 -133,0 m 140,0 c 0,11.7 0,23.3 0,35 44.3,0 88.7,0 133,0 0,-11.7 0,-23.3 0,-35 -44.3,0 -88.7,0 -133,0 m 140,0 c 0,11.7 0,23.3 0,35 44.3,0 88.7,0 133,0 0,-11.7 0,-23.3 0,-35 -44.3,0 -88.7,0 -133,0 m -630,42 c 0,11.7 0,23.3 0,35 44.3,0 88.7,0 133,0 0,-11.7 0,-23.3 0,-35 -44.3,0 -88.7,0 -133,0 m 140,0 c 0,11.7 0,23.3 0,35 44.3,0 88.7,0 133,0 0,-11.6 0,-23.3 0,-35 -44.3,0 -88.7,0 -133,0 m 140,0 c 0,11.7 0,23.3 0,35 44.3,0 88.7,0 133,0 0,-11.7 0,-23.3 0,-35 -44.4,0 -88.7,0 -133,0 m 140,0 c 0,11.7 0,23.3 0,35 44.3,0 88.7,0 133,0 0,-11.7 0,-23.3 0,-35 -44.3,0 -88.7,0 -133,0 m 140,0 c 0,11.7 0,23.3 0,35 44.3,0 88.7,0 133,0 0,-11.7 0,-23.3 0,-35 -44.3,0 -88.7,0 -133,0 m 140,0 c 0,11.7 0,23.3 0,35 44.3,0 88.7,0 133,0 0,-11.7 0,-23.3 0,-35 -44.3,0 -88.7,0 -133,0 M 70,672 c 0,11.7 0,23.3 0,35 44.3,0 88.7,0 133,0 0,-11.7 0,-23.3 0,-35 -44.3,0 -88.7,0 -133,0 m 140,0 c 0,11.7 0,23.3 0,35 44.3,0 88.7,0 133,0 0,-11.7 0,-23.3 0,-35 -44.3,0 -88.7,0 -133,0 m 140,0 c 0,11.7 0,23.3 0,35 44.3,0 88.6,0 133,0 0,-11.7 0,-23.3 0,-35 -44.3,0 -88.7,0 -133,0 m 140,0 c 0,11.7 0,23.4 0,35 44.3,0 88.7,0 133,0 0,-11.7 0,-23.3 0,-35 -44.3,0 -88.7,0 -133,0 m 140,0 c 0,11.7 0,23.3 0,35 44.3,0 88.7,0 133,0 0,-11.7 0,-23.3 0,-35 -44.3,0 -88.7,0 -133,0 m 140,0 c 0,11.7 0,23.3 0,35 44.3,0 88.6,0 133,0 0,-11.7 0,-23.3 0,-35 -44.3,0 -88.7,0 -133,0 m -630,42 c 0,11.7 0,23.4 0,35.1 44.3,0 88.7,-0.1 133,0 0,-11.7 0,-23.4 0,-35.1 -44.3,0 -88.7,0 -133,0 m 140,0 c 0,11.7 0,23.3 0,35 44.3,0 88.7,0.1 133,0 0,-11.7 0,-23.3 0,-35 -44.3,0 -88.6,0 -133,0 m 140,0 c 0,11.7 0,23.3 0,35 44.3,0 88.7,0.1 133,0 0,-11.7 0,-23.3 0,-35 -44.3,0 -88.7,0 -133,0 m 140,0 c 0,11.7 0,23.4 0,35.1 44.3,-0.3 88.7,0.1 133,-0.1 0,-11.7 0,-23.3 0,-35 -44.3,0 -88.7,0 -133,0 m 140,0 c 0,11.7 0,23.3 0,35 44.3,0.1 88.6,0.1 133,0 0,-11.7 0,-23.3 0,-35 -44.3,0 -88.7,0 -133,0 m 140,0 c 0,11.7 0,23.4 0,35.1 44.3,0 88.7,-0.1 133,0.1 0,-11.7 0,-23.4 0,-35.1 C 928.7,714 884.3,714 840,714 Z"
   inkscape:connector-curvature="0"
   style="fill:#e0e0e0" />

	<path
   id="path1373"
   d="m 70,0 h 133 c -0.1,11.7 0,23.3 0,35 -44.3,0 -88.7,0 -133,0 0,-11.7 0,-23.3 0,-35 z"
   inkscape:connector-curvature="0"
   style="fill:#7e452a" />

	<path
   id="path1375"
   d="m 350,0 h 133 c 0,11.7 0,23.3 0,35 -44.3,0 -88.7,0 -133,0 0,-11.7 0,-23.3 0,-35 z"
   inkscape:connector-curvature="0"
   style="fill:#7e452a" />

	<path
   id="path1377"
   d="m 140,42 c 44.3,0 88.7,0 133,0 0,11.7 0,23.3 0,35 -44.3,0 -88.7,0 -133,0 0,-11.7 0,-23.3 0,-35 z"
   inkscape:connector-curvature="0"
   style="fill:#7e452a" />

	<path
   id="path1379"
   d="m 280,42 c 44.3,0 88.7,0 133,0 0,11.7 0,23.3 0,35 -44.3,0 -88.6,0 -133,0 0,-11.7 0,-23.3 0,-35 z"
   inkscape:connector-curvature="0"
   style="fill:#7e452a" />

	<path
   id="path1381"
   d="m 700,42 c 44.3,0 88.7,0 133,0 0,11.7 0,23.3 0,35 -44.3,0 -88.6,0 -133,0 0,-11.7 0,-23.3 0,-35 z"
   inkscape:connector-curvature="0"
   style="fill:#7e452a" />

	<path
   id="path1383"
   d="m 210,84 c 44.3,0 88.7,0 133,0 0,11.7 0,23.3 0,35 -44.3,0 -88.6,0 -133,0 0,-11.7 0,-23.3 0,-35 z"
   inkscape:connector-curvature="0"
   style="fill:#7e452a" />

	<path
   id="path1385"
   d="m 350,84 c 44.3,0 88.7,0 133,0 0,11.7 0,23.3 0,35 -44.3,0 -88.7,0 -133,0 0,-11.7 0,-23.3 0,-35 z"
   inkscape:connector-curvature="0"
   style="fill:#7e452a" />

	<path
   id="path1387"
   d="m 280,126 c 44.3,0 88.7,0 133,0 0,11.7 0,23.3 0,35 -44.3,0 -88.7,0 -133,0 0,-11.7 0,-23.3 0,-35 z"
   inkscape:connector-curvature="0"
   style="fill:#7e452a" />

	<path
   id="path1389"
   d="m 420,126 c 44.3,0 88.7,0 133,0 0,11.7 0,23.3 0,35 -44.3,0 -88.7,0 -133,0 0,-11.7 0,-23.3 0,-35 z"
   inkscape:connector-curvature="0"
   style="fill:#7e452a" />

	<path
   id="path1391"
   d="m 700,126 c 44.3,0 88.7,0 133,0 0,11.7 0,23.3 0,35 -44.3,0 -88.7,0 -133,0 0,-11.7 0,-23.3 0,-35 z"
   inkscape:connector-curvature="0"
   style="fill:#7e452a" />

	<path
   id="path1393"
   d="m 980,126 c 14.7,0 29.3,0 44,0 v 35 c -14.7,0 -29.3,0 -44,0 0,-11.7 0,-23.3 0,-35 z"
   inkscape:connector-curvature="0"
   style="fill:#7e452a" />

	<path
   id="path1395"
   d="m 0,168 c 21,0 42,0 63,0 0,11.7 0,23.3 0,35 -21,0 -42,0 -63,0 z"
   inkscape:connector-curvature="0"
   style="fill:#7e452a" />

	<path
   id="path1397"
   d="m 210,168 c 44.3,0 88.7,0 133,0 0,11.7 0,23.3 0,35 -44.3,0 -88.7,0 -133,0 0,-11.7 0,-23.3 0,-35 z"
   inkscape:connector-curvature="0"
   style="fill:#7e452a" />

	<path
   id="path1399"
   d="m 630,168 c 44.3,0 88.7,0 133,0 0,11.7 0,23.3 0,35 -44.3,0 -88.7,0 -133,0 0,-11.7 0,-23.3 0,-35 z"
   inkscape:connector-curvature="0"
   style="fill:#7e452a" />

	<path
   id="path1401"
   d="m 280,210 c 44.3,0 88.7,0 133,0 0,11.7 0,23.3 0,35 -44.3,0 -88.7,0 -133,0 0,-11.7 0,-23.3 0,-35 z"
   inkscape:connector-curvature="0"
   style="fill:#7e452a" />

	<path
   id="path1403"
   d="m 560,210 c 44.3,0 88.7,0 133,0 0,11.7 0,23.3 0,35 -44.3,0 -88.7,0 -133,0 0,-11.7 0,-23.3 0,-35 z"
   inkscape:connector-curvature="0"
   style="fill:#7e452a" />

	<path
   id="path1405"
   d="m 630,252 c 44.3,0 88.7,0 133,0 0,11.7 0,23.3 0,35 -44.3,0 -88.7,0 -133,0 0,-11.7 0,-23.3 0,-35 z"
   inkscape:connector-curvature="0"
   style="fill:#7e452a" />

	<path
   id="path1407"
   d="m 420,294 c 44.3,0 88.7,0 133,0 0,11.7 0,23.3 0,35 -44.3,0 -88.6,0 -133,0 0,-11.7 0,-23.3 0,-35 z"
   inkscape:connector-curvature="0"
   style="fill:#7e452a" />

	<path
   id="path1409"
   d="m 700,294 c 44.3,0 88.7,0 133,0 0,11.7 0,23.3 0,35 -44.3,0 -88.7,0 -133,0 0,-11.7 0,-23.3 0,-35 z"
   inkscape:connector-curvature="0"
   style="fill:#7e452a" />

	<path
   id="path1411"
   d="m 210,336 c 44.3,0 88.7,0 133,0 0,11.7 0,23.3 0,35 -44.3,0 -88.7,0 -133,0 0,-11.7 0,-23.3 0,-35 z"
   inkscape:connector-curvature="0"
   style="fill:#7e452a" />

	<path
   id="path1413"
   d="m 140,378 c 44.3,0 88.7,0 133,0 0,11.7 0,23.3 0,35 -44.3,0 -88.7,0 -133,0 0,-11.7 0,-23.3 0,-35 z"
   inkscape:connector-curvature="0"
   style="fill:#7e452a" />

	<path
   id="path1415"
   d="m 280,378 c 44.3,0 88.6,0 133,0 0,11.7 0,23.3 0,35 -44.3,0 -88.7,0 -133,0 0,-11.7 0,-23.3 0,-35 z"
   inkscape:connector-curvature="0"
   style="fill:#7e452a" />

	<path
   id="path1417"
   d="m 490,420 c 44.3,0 88.7,0 133,0 0,11.7 0,23.3 0,35 -44.3,0 -88.7,0 -133,0 0,-11.7 0,-23.3 0,-35 z"
   inkscape:connector-curvature="0"
   style="fill:#7e452a" />

	<path
   id="path1419"
   d="m 770,420 c 44.3,0 88.7,0 133,0 0,11.7 0,23.3 0,35 -44.3,0 -88.7,0 -133,0 0,-11.7 0,-23.3 0,-35 z"
   inkscape:connector-curvature="0"
   style="fill:#7e452a" />

	<path
   id="path1421"
   d="m 700,462 c 44.3,0 88.7,0 133,0 0,11.7 0,23.3 0,35 -44.3,0 -88.7,0 -133,0 0,-11.7 0,-23.3 0,-35 z"
   inkscape:connector-curvature="0"
   style="fill:#7e452a" />

	<path
   id="path1423"
   d="m 910,504 c 38,0 76,0 114,0 v 35 c -38,0 -76,0 -114,0 0,-11.7 0,-23.3 0,-35 z"
   inkscape:connector-curvature="0"
   style="fill:#7e452a" />

	<path
   id="path1425"
   d="m 140,546 c 44.3,0 88.7,0 133,0 0,11.7 0,23.3 0,35 -44.3,0 -88.7,0 -133,0 0,-11.7 0,-23.3 0,-35 z"
   inkscape:connector-curvature="0"
   style="fill:#7e452a" />

	<path
   id="path1427"
   d="m 420,546 c 44.3,0 88.7,0 133,0 0,11.7 0,23.3 0,35 -44.3,0 -88.6,0 -133,0 0,-11.7 0,-23.3 0,-35 z"
   inkscape:connector-curvature="0"
   style="fill:#7e452a" />

	<path
   id="path1429"
   d="m 700,546 c 44.3,0 88.7,0 133,0 0,11.7 0,23.3 0,35 -44.3,0 -88.7,0 -133,0 0,-11.7 0,-23.3 0,-35 z"
   inkscape:connector-curvature="0"
   style="fill:#7e452a" />

	<path
   id="path1431"
   d="m 770,588 c 44.3,0 88.7,0 133,0 0,11.7 0,23.3 0,35 -44.3,0 -88.6,0 -133,0 0,-11.7 0,-23.3 0,-35 z"
   inkscape:connector-curvature="0"
   style="fill:#7e452a" />

	<path
   id="path1433"
   d="m 770,672 c 44.3,0 88.7,0 133,0 0,11.7 0,23.3 0,35 -44.3,0 -88.7,0 -133,0 0,-11.7 0,-23.3 0,-35 z"
   inkscape:connector-curvature="0"
   style="fill:#7e452a" />

	<path
   id="path1435"
   d="m 140,714 c 44.3,0 88.7,0 133,0 0,11.7 0,23.4 0,35.1 -44.3,-0.2 -88.7,0 -133,0 0,-11.7 0,-23.4 0,-35.1 z"
   inkscape:connector-curvature="0"
   style="fill:#7e452a" />

	<path
   id="path1437"
   d="m 210,0 h 133 c 0,11.7 0,23.3 0,35 -44.3,0 -88.7,0 -133,0 0,-11.7 0,-23.3 0,-35 z"
   inkscape:connector-curvature="0"
   style="fill:#693923" />

	<path
   id="path1439"
   d="m 770,0 h 133 c 0,11.7 0,23.3 0,35 -44.3,0 -88.7,0 -133,0 0,-11.7 0,-23.3 0,-35 z"
   inkscape:connector-curvature="0"
   style="fill:#693923" />

	<path
   id="path1441"
   d="m 770,84 c 44.3,0 88.7,0 133,0 0,11.7 0,23.3 0,35 -44.3,0 -88.7,0 -133,0 0,-11.7 0,-23.3 0,-35 z"
   inkscape:connector-curvature="0"
   style="fill:#693923" />

	<path
   id="path1443"
   d="m 0,210 c 44.3,0 88.7,0 133,0 0,11.7 0,23.3 0,35 -44.3,0 -88.7,0 -133,0 z"
   inkscape:connector-curvature="0"
   style="fill:#693923" />

	<path
   id="path1445"
   d="m 0,252 c 21,0 42,0 63,0 0,11.7 0,23.3 0,35 -21,0 -42,0 -63,0 z"
   inkscape:connector-curvature="0"
   style="fill:#693923" />

	<path
   id="path1447"
   d="m 70,252 c 44.3,0 88.7,0 133,0 0,11.7 0,23.3 0,35 -44.3,0 -88.7,0 -133,0 0,-11.7 0,-23.3 0,-35 z"
   inkscape:connector-curvature="0"
   style="fill:#693923" />

	<path
   id="path1449"
   d="m 350,336 c 44.3,0 88.7,0 133,0 0,11.7 0,23.3 0,35 -44.3,0 -88.7,0 -133,0 0,-11.7 0,-23.3 0,-35 z"
   inkscape:connector-curvature="0"
   style="fill:#693923" />

	<path
   id="path1451"
   d="m 770,336 c 44.3,0 88.7,0 133,0 0,11.7 0,23.3 0,35 -44.3,0 -88.7,0 -133,0 0,-11.7 0,-23.3 0,-35 z"
   inkscape:connector-curvature="0"
   style="fill:#693923" />

	<path
   id="path1453"
   d="m 910,336 c 38,0 76,0 114,0 v 35 c -38,0 -76,0 -114,0 0,-11.7 0,-23.3 0,-35 z"
   inkscape:connector-curvature="0"
   style="fill:#693923" />

	<path
   id="path1455"
   d="m 0,462 c 44.3,0 88.7,0 133,0 0,11.7 0,23.3 0,35 -44.3,0 -88.7,0 -133,0 z"
   inkscape:connector-curvature="0"
   style="fill:#693923" />

	<path
   id="path1457"
   d="m 0,504 c 21,0 42,0 63,0 0,11.7 0,23.3 0,35 -21,0 -42,0 -63,0 z"
   inkscape:connector-curvature="0"
   style="fill:#693923" />

	<path
   id="path1459"
   d="m 630,504 c 44.3,0 88.7,0 133,0 0,11.7 0,23.3 0,35 -44.3,0 -88.7,0 -133,0 0,-11.7 0,-23.3 0,-35 z"
   inkscape:connector-curvature="0"
   style="fill:#693923" />

	<path
   id="path1461"
   d="m 0,546 c 44.3,0 88.7,0 133,0 0,11.7 0,23.3 0,35 -44.3,0 -88.7,0 -133,0 z"
   inkscape:connector-curvature="0"
   style="fill:#693923" />

	<path
   id="path1463"
   d="m 280,546 c 44.3,0 88.7,0 133,0 0,11.7 0,23.3 0,35 -44.3,0 -88.7,0 -133,0 0,-11.7 0,-23.3 0,-35 z"
   inkscape:connector-curvature="0"
   style="fill:#693923" />

	<path
   id="path1465"
   d="m 210,588 c 44.3,0 88.7,0 133,0 0,11.7 0,23.3 0,35 -44.3,0 -88.7,0 -133,0 0,-11.7 0,-23.3 0,-35 z"
   inkscape:connector-curvature="0"
   style="fill:#693923" />

	<path
   id="path1467"
   d="m 490,588 c 44.3,0 88.7,0 133,0 0,11.7 0,23.3 0,35 -44.3,0 -88.7,0 -133,0 0,-11.7 0,-23.3 0,-35 z"
   inkscape:connector-curvature="0"
   style="fill:#693923" />

	<path
   id="path1469"
   d="m 560,630 c 44.3,0 88.7,0 133,0 0,11.7 0,23.3 0,35 -44.3,0 -88.7,0 -133,0 0,-11.7 0,-23.3 0,-35 z"
   inkscape:connector-curvature="0"
   style="fill:#693923" />

	<path
   id="path1471"
   d="m 560,714 c 44.3,0 88.7,0 133,0 0,11.7 0,23.3 0,35 -44.3,0.2 -88.6,-0.2 -133,0.1 0,-11.7 0,-23.4 0,-35.1 z"
   inkscape:connector-curvature="0"
   style="fill:#693923" />

	<path
   id="path1473"
   d="m 490,0 h 133 c 0,11.7 0,23.3 0,35 -44.3,0 -88.7,0 -133,0 0,-11.7 0,-23.3 0,-35 z"
   inkscape:connector-curvature="0"
   style="fill:#d37346" />

	<path
   id="path1475"
   d="m 630,0 h 133 c 0,11.7 0,23.3 0,35 -44.3,0 -88.7,0 -133,0 0,-11.7 0,-23.3 0,-35 z"
   inkscape:connector-curvature="0"
   style="fill:#d37346" />

	<path
   id="path1477"
   d="m 490,84 c 44.3,0 88.7,0 133,0 0,11.7 0,23.3 0,35 -44.3,0 -88.7,0 -133,0 0,-11.7 0,-23.3 0,-35 z"
   inkscape:connector-curvature="0"
   style="fill:#d37346" />

	<path
   id="path1479"
   d="m 490,336 c 44.3,0 88.6,0 133,0 0,11.7 0,23.3 0,35 -44.3,0.1 -88.7,0 -133,0 0,-11.7 -0.1,-23.3 0,-35 z"
   inkscape:connector-curvature="0"
   style="fill:#d37346" />

	<path
   id="path1481"
   d="m 350,420 c 44.3,0 88.7,0 133,0 0,11.6 0,23.3 0,35 -44.3,0 -88.7,0 -133,0 -0.1,-11.7 0,-23.3 0,-35 z"
   inkscape:connector-curvature="0"
   style="fill:#d37346" />

	<path
   id="path1483"
   d="m 280,630 c 44.3,0 88.7,0 133,0 0,11.6 0,23.3 0,35 -44.3,0.1 -88.7,0 -133,0 0,-11.7 0,-23.3 0,-35 z"
   inkscape:connector-curvature="0"
   style="fill:#d37346" />

	<path
   id="path1485"
   d="m 0,42 c 44.3,0 88.7,0 133,0 0,11.7 0,23.3 0,35 -44.3,0 -88.6,0 -133,0 z"
   inkscape:connector-curvature="0"
   style="fill:#bd673f" />

	<path
   id="path1487"
   d="m 840,42 c 44.3,0 88.7,0 133,0 0,11.7 0,23.3 0,35 -44.3,0 -88.7,0 -133,0 0,-11.7 0,-23.3 0,-35 z"
   inkscape:connector-curvature="0"
   style="fill:#bd673f" />

	<path
   id="path1489"
   d="m 980,42 c 14.7,0 29.3,0 44,0 v 35 c -14.7,0 -29.3,0 -44,0 0,-11.7 0,-23.3 0,-35 z"
   inkscape:connector-curvature="0"
   style="fill:#bd673f" />

	<path
   id="path1491"
   d="m 0,126 c 44.3,0.1 88.7,0 133,0 0,11.7 0,23.3 0,35 -44.3,0 -88.7,0 -133,0 z"
   inkscape:connector-curvature="0"
   style="fill:#bd673f" />

	<path
   id="path1493"
   d="m 490,168 c 44.3,0 88.7,0 133,0 0,11.7 0,23.3 0,35 -44.3,0 -88.7,0 -133,0 0,-11.7 0,-23.3 0,-35 z"
   inkscape:connector-curvature="0"
   style="fill:#bd673f" />

	<path
   id="path1495"
   d="m 840,210 c 44.3,0 88.6,0 133,0 0,11.7 0,23.3 0,35 -44.3,0 -88.7,0 -133,0 0,-11.7 0,-23.3 0,-35 z"
   inkscape:connector-curvature="0"
   style="fill:#bd673f" />

	<path
   id="path1497"
   d="m 490,252 c 44.3,0 88.7,0 133,0 0,11.7 0,23.3 0,35 -44.3,0 -88.7,0 -133,0 0,-11.7 0,-23.3 0,-35 z"
   inkscape:connector-curvature="0"
   style="fill:#bd673f" />

	<path
   id="path1499"
   d="m 910,252 c 38,0 76,0 114,0 v 35 c -38,0 -76,0 -114,0 0,-11.7 0,-23.3 0,-35 z"
   inkscape:connector-curvature="0"
   style="fill:#bd673f" />

	<path
   id="path1501"
   d="m 0,294 c 44.3,0 88.7,0 133,0 0,11.7 0,23.3 0,35 -44.3,0 -88.7,0 -133,0 z"
   inkscape:connector-curvature="0"
   style="fill:#bd673f" />

	<path
   id="path1503"
   d="m 140,294 c 44.3,0 88.7,0 133,0 0,11.7 0,23.3 0,35 -44.3,0 -88.7,0 -133,0 0,-11.6 0,-23.3 0,-35 z"
   inkscape:connector-curvature="0"
   style="fill:#bd673f" />

	<path
   id="path1505"
   d="m 280,294 c 44.3,0 88.7,0 133,0 0,11.7 0,23.3 0,35 -44.3,0 -88.6,0 -133,0 0,-11.7 0,-23.3 0,-35 z"
   inkscape:connector-curvature="0"
   style="fill:#bd673f" />

	<path
   id="path1507"
   d="m 630,336 c 44.3,0 88.7,0 133,0 0,11.7 0,23.3 0,35 -44.3,0 -88.6,0 -133,0 0,-11.7 0,-23.3 0,-35 z"
   inkscape:connector-curvature="0"
   style="fill:#bd673f" />

	<path
   id="path1509"
   d="m 560,378 c 44.3,0 88.7,0 133,0 0,11.7 0,23.3 0,35 -44.3,0 -88.7,0 -133,0 0,-11.7 0,-23.3 0,-35 z"
   inkscape:connector-curvature="0"
   style="fill:#bd673f" />

	<path
   id="path1511"
   d="m 980,378 c 14.7,0 29.3,0 44,0 v 35 c -14.7,0 -29.3,0 -44,0 0,-11.7 0,-23.3 0,-35 z"
   inkscape:connector-curvature="0"
   style="fill:#bd673f" />

	<path
   id="path1513"
   d="m 210,420 c 44.3,0 88.7,0 133,0 0,11.7 0,23.3 0,35 -44.3,0 -88.7,0 -133,0 0,-11.7 0,-23.3 0,-35 z"
   inkscape:connector-curvature="0"
   style="fill:#bd673f" />

	<path
   id="path1515"
   d="m 910,420 c 38,0 76,0 114,0 v 35 c -38,0 -76,0 -114,0 0,-11.7 0,-23.3 0,-35 z"
   inkscape:connector-curvature="0"
   style="fill:#bd673f" />

	<path
   id="path1517"
   d="m 70,504 c 44.3,0 88.7,0 133,0 0,11.7 0,23.3 0,35 -44.3,0.1 -88.7,0 -133,0 0,-11.7 0,-23.3 0,-35 z"
   inkscape:connector-curvature="0"
   style="fill:#bd673f" />

	<path
   id="path1519"
   d="m 560,546 c 44.3,0 88.7,0 133,0 0,11.7 0,23.3 0,35 -44.3,0 -88.6,0 -133,0 0,-11.7 0,-23.3 0,-35 z"
   inkscape:connector-curvature="0"
   style="fill:#bd673f" />

	<path
   id="path1521"
   d="m 980,546 c 14.7,0 29.3,0 44,0 v 35 c -14.7,0.1 -29.3,0 -44,0 0,-11.7 0,-23.3 0,-35 z"
   inkscape:connector-curvature="0"
   style="fill:#bd673f" />

	<path
   id="path1523"
   d="m 0,588 c 21,0 42,0 63,0 0,11.7 0,23.3 0,35 -21,0 -42,0 -63,0 z"
   inkscape:connector-curvature="0"
   style="fill:#bd673f" />

	<path
   id="path1525"
   d="m 630,588 c 44.3,0 88.7,0 133,0 0,11.7 0,23.3 0,35 -44.3,0 -88.7,0 -133,0 0,-11.7 0,-23.3 0,-35 z"
   inkscape:connector-curvature="0"
   style="fill:#bd673f" />

	<path
   id="path1527"
   d="m 420,630 c 44.3,0 88.6,0 133,0 0.1,11.7 0,23.3 0,35 -44.3,0 -88.7,0 -133,0 0,-11.7 0,-23.3 0,-35 z"
   inkscape:connector-curvature="0"
   style="fill:#bd673f" />

	<path
   id="path1529"
   d="m 350,672 c 44.3,0 88.7,0 133,0 0,11.7 0,23.3 0,35 -44.3,0 -88.7,0 -133,0 0,-11.7 0,-23.3 0,-35 z"
   inkscape:connector-curvature="0"
   style="fill:#bd673f" />

	<path
   id="path1531"
   d="m 630,672 c 44.3,0 88.7,0 133,0 0,11.7 0,23.3 0,35 -44.3,0 -88.7,0 -133,0 0,-11.7 0,-23.3 0,-35 z"
   inkscape:connector-curvature="0"
   style="fill:#bd673f" />

	<path
   id="path1533"
   d="m 910,672 c 38,0 76,0 114,0 v 35 c -38,0 -76,0 -114,0 0,-11.7 0,-23.3 0,-35 z"
   inkscape:connector-curvature="0"
   style="fill:#bd673f" />

	<path
   id="path1535"
   d="m 280,714 c 44.3,0 88.7,0 133,0 0,11.7 0,23.3 0,35 -44.3,0.1 -88.7,0.1 -133,0 0,-11.7 0,-23.3 0,-35 z"
   inkscape:connector-curvature="0"
   style="fill:#bd673f" />

	<path
   id="path1537"
   d="m 420,714 c 44.3,0 88.7,0 133,0 0,11.7 0,23.3 0,35 -44.3,0.2 -88.7,0 -133,0 0,-11.7 0,-23.3 0,-35 z"
   inkscape:connector-curvature="0"
   style="fill:#bd673f" />

	<path
   id="path1539"
   d="m 980,714 c 14.7,0 29.3,0 44,0 v 35 c -14.7,0 -29.3,0 -44,0 0,-11.7 0,-23.3 0,-35 z"
   inkscape:connector-curvature="0"
   style="fill:#bd673f" />

	<path
   id="path1541"
   d="m 560,42 c 44.3,0 88.6,0 133,0 0,11.7 0,23.3 0,35 -44.3,0 -88.7,0 -133,0 0,-11.7 0,-23.3 0,-35 z"
   inkscape:connector-curvature="0"
   style="fill:#a85c38" />

	<path
   id="path1543"
   d="m 630,84 c 44.3,0 88.6,0 133,0 0.1,11.7 0,23.3 0,35 -44.3,0 -88.7,0 -133,0 0,-11.7 0,-23.3 0,-35 z"
   inkscape:connector-curvature="0"
   style="fill:#a85c38" />

	<path
   id="path1545"
   d="m 910,84 c 38,0 76,0 114,0 v 35 c -38,0 -76,0 -114,0 0,-11.7 0,-23.3 0,-35 z"
   inkscape:connector-curvature="0"
   style="fill:#a85c38" />

	<path
   id="path1547"
   d="m 140,126 c 44.3,0 88.6,0 133,0 0,11.7 0,23.3 0,35 -44.3,0 -88.7,0 -133,0 0,-11.7 0,-23.3 0,-35 z"
   inkscape:connector-curvature="0"
   style="fill:#a85c38" />

	<path
   id="path1549"
   d="m 560,126 c 44.3,0 88.7,0 133,0 0,11.7 0,23.3 0,35 -44.3,0 -88.6,0 -133,0 0,-11.7 0,-23.3 0,-35 z"
   inkscape:connector-curvature="0"
   style="fill:#a85c38" />

	<path
   id="path1551"
   d="m 840,126 c 44.3,0 88.6,0 133,0 0,11.7 0,23.3 0,35 -44.3,0 -88.6,0 -133,0 0,-11.7 0,-23.3 0,-35 z"
   inkscape:connector-curvature="0"
   style="fill:#a85c38" />

	<path
   id="path1553"
   d="m 350,168 c 44.3,0 88.7,0 133,0 0,11.7 0,23.3 0,35 -44.3,0 -88.7,0 -133,0 0,-11.7 0,-23.3 0,-35 z"
   inkscape:connector-curvature="0"
   style="fill:#a85c38" />

	<path
   id="path1555"
   d="m 770,168 c 44.3,0 88.7,0 133,0 0,11.7 0,23.3 0,35 -44.3,0 -88.7,0 -133,0 0,-11.7 0,-23.3 0,-35 z"
   inkscape:connector-curvature="0"
   style="fill:#a85c38" />

	<path
   id="path1557"
   d="m 700,210 c 44.3,0 88.6,0 133,0 0,11.7 0,23.3 0,35 -44.3,0 -88.7,0 -133,0 0,-11.7 0,-23.3 0,-35 z"
   inkscape:connector-curvature="0"
   style="fill:#a85c38" />

	<path
   id="path1559"
   d="m 980,210 c 14.7,0 29.3,0 44,0 v 35 c -14.7,0 -29.3,0 -44,0 0,-11.7 0,-23.3 0,-35 z"
   inkscape:connector-curvature="0"
   style="fill:#a85c38" />

	<path
   id="path1561"
   d="m 210,252 c 44.3,-0.1 88.7,0 133,0 0,11.7 0,23.3 0,35 -44.3,0 -88.7,0 -133,0 0,-11.7 0,-23.3 0,-35 z"
   inkscape:connector-curvature="0"
   style="fill:#a85c38" />

	<path
   id="path1563"
   d="m 350,252 c 44.3,0 88.7,0 133,0 0,11.7 0,23.3 0,35 -44.3,0 -88.7,0 -133,0 0,-11.7 0,-23.3 0,-35 z"
   inkscape:connector-curvature="0"
   style="fill:#a85c38" />

	<path
   id="path1565"
   d="m 770,252 c 44.3,-0.1 88.7,0 133,0 0,11.7 0,23.3 0,35 -44.3,0 -88.6,0 -133,0 0,-11.7 0,-23.3 0,-35 z"
   inkscape:connector-curvature="0"
   style="fill:#a85c38" />

	<path
   id="path1567"
   d="m 560,294 c 44.3,0 88.6,0 133,0 0,11.7 0,23.3 0,35 -44.3,0 -88.7,0 -133,0 0,-11.7 0,-23.3 0,-35 z"
   inkscape:connector-curvature="0"
   style="fill:#a85c38" />

	<path
   id="path1569"
   d="m 840,294 c 44.3,0 88.7,0 133,0 0,11.7 0,23.3 0,35 -44.3,0 -88.7,0 -133,0 0,-11.7 0,-23.3 0,-35 z"
   inkscape:connector-curvature="0"
   style="fill:#a85c38" />

	<path
   id="path1571"
   d="m 980,294 c 14.7,0 29.3,0 44,0 v 35 c -14.7,0 -29.3,0 -44,0 0,-11.7 0,-23.3 0,-35 z"
   inkscape:connector-curvature="0"
   style="fill:#a85c38" />

	<path
   id="path1573"
   d="m 70,336 c 44.3,0 88.7,0 133,0 0,11.7 0,23.3 0,35 -44.3,0 -88.7,0 -133,0 0,-11.7 0,-23.3 0,-35 z"
   inkscape:connector-curvature="0"
   style="fill:#a85c38" />

	<path
   id="path1575"
   d="m 0,378 c 44.3,0 88.7,0 133,0 0,11.7 0,23.3 0,35 -44.3,0 -88.7,0 -133,0 z"
   inkscape:connector-curvature="0"
   style="fill:#a85c38" />

	<path
   id="path1577"
   d="m 420,378 c 44.3,0 88.7,0 133,0 0,11.7 0,23.3 0,35 -44.3,0 -88.7,0 -133,0 0,-11.7 0,-23.3 0,-35 z"
   inkscape:connector-curvature="0"
   style="fill:#a85c38" />

	<path
   id="path1579"
   d="m 0,420 c 21,0 42,0 63,0 0,11.7 0,23.3 0,35 -21,0 -42,0 -63,0 z"
   inkscape:connector-curvature="0"
   style="fill:#a85c38" />

	<path
   id="path1581"
   d="m 70,420 c 44.3,0 88.7,0 133,0 0,11.7 0,23.3 0,35 -44.3,0 -88.7,0 -133,0 0,-11.7 0,-23.3 0,-35 z"
   inkscape:connector-curvature="0"
   style="fill:#a85c38" />

	<path
   id="path1583"
   d="m 420,462 c 44.3,0 88.7,0 133,0 0,11.7 0,23.3 0,35 -44.3,0 -88.6,0 -133,0 0,-11.7 0,-23.3 0,-35 z"
   inkscape:connector-curvature="0"
   style="fill:#a85c38" />

	<path
   id="path1585"
   d="m 840,462 c 44.3,-0.1 88.7,0 133,0 0,11.7 0,23.3 0,35 -44.3,0 -88.6,0 -133,0 0,-11.7 0,-23.3 0,-35 z"
   inkscape:connector-curvature="0"
   style="fill:#a85c38" />

	<path
   id="path1587"
   d="m 210,504 c 44.3,0 88.7,0 133,0 0,11.7 0,23.3 0,35 -44.3,0 -88.7,0 -133,0 0,-11.7 0,-23.3 0,-35 z"
   inkscape:connector-curvature="0"
   style="fill:#a85c38" />

	<path
   id="path1589"
   d="m 490,504 c 44.3,0 88.7,0 133,0 0,11.7 0,23.3 0,35 -44.3,0 -88.6,0 -133,0 0,-11.7 0,-23.3 0,-35 z"
   inkscape:connector-curvature="0"
   style="fill:#a85c38" />

	<path
   id="path1591"
   d="m 770,504 c 44.3,0 88.7,0 133,0 0,11.7 0,23.3 0,35 -44.3,0 -88.7,0 -133,0 0,-11.7 0,-23.3 0,-35 z"
   inkscape:connector-curvature="0"
   style="fill:#a85c38" />

	<path
   id="path1593"
   d="m 840,546 c 44.3,0 88.7,0 133,0 0,11.7 0,23.3 0,35 -44.3,0 -88.7,0 -133,0 0,-11.7 0,-23.3 0,-35 z"
   inkscape:connector-curvature="0"
   style="fill:#a85c38" />

	<path
   id="path1595"
   d="m 70,588 c 44.3,0 88.7,0 133,0 0,11.7 0,23.3 0,35 -44.3,0 -88.7,0 -133,0 0,-11.7 0,-23.3 0,-35 z"
   inkscape:connector-curvature="0"
   style="fill:#a85c38" />

	<path
   id="path1597"
   d="m 910,588 c 38,0 76,0 114,0 v 35 c -38,0 -76,0 -114,0 0,-11.7 0,-23.3 0,-35 z"
   inkscape:connector-curvature="0"
   style="fill:#a85c38" />

	<path
   id="path1599"
   d="m 210,672 c 44.3,0 88.7,0 133,0 0,11.7 0,23.3 0,35 -44.3,0 -88.7,0 -133,0 0,-11.7 0,-23.3 0,-35 z"
   inkscape:connector-curvature="0"
   style="fill:#a85c38" />

	<path
   id="path1601"
   d="m 490,672 c 44.3,0 88.7,0 133,0 0.1,11.7 0,23.3 0,35 -44.3,0 -88.7,0 -133,0 0,-11.7 0,-23.3 0,-35 z"
   inkscape:connector-curvature="0"
   style="fill:#a85c38" />

	<path
   id="path1603"
   d="m 700,714 c 44.3,0 88.6,0 133,0 0,11.7 0,23.3 0,35 -44.3,0.1 -88.7,0.1 -133,0 0,-11.7 0,-23.3 0,-35 z"
   inkscape:connector-curvature="0"
   style="fill:#a85c38" />

	<path
   id="path1605"
   d="m 840,714 c 44.3,0 88.6,0 133,0 0,11.7 0,23.4 0,35.1 -44.3,-0.1 -88.7,-0.1 -133,-0.1 0,-11.6 0,-23.3 0,-35 z"
   inkscape:connector-curvature="0"
   style="fill:#a85c38" />

</g>
    <rect
       style="opacity:1;fill:#ffffff;fill-opacity:0.70682726;stroke:none;stroke-width:16.5475502;stroke-miterlimit:4;stroke-dasharray:none;stroke-dashoffset:0;stroke-opacity:1"
       id="rect954"
       width="350.8251"
       height="155.1825"
       x="-11.411927"
       y="155.46773" />
    <rect
       style="opacity:1;fill:#000000;fill-opacity:1;stroke:none;stroke-width:10;stroke-miterlimit:4;stroke-dasharray:none;stroke-dashoffset:0;stroke-opacity:1"
       id="rect1155"
       width="97.892036"
       height="13.984577"
       x="240.77463"
       y="158.99532" />
    <rect
       y="198.88678"
       x="240.77463"
       height="13.984577"
       width="97.892036"
       id="rect1157"
       style="opacity:1;fill:#000000;fill-opacity:1;stroke:none;stroke-width:10;stroke-miterlimit:4;stroke-dasharray:none;stroke-dashoffset:0;stroke-opacity:1" />
    <rect
       style="opacity:1;fill:#000000;fill-opacity:1;stroke:none;stroke-width:10;stroke-miterlimit:4;stroke-dasharray:none;stroke-dashoffset:0;stroke-opacity:1"
       id="rect1159"
       width="97.892036"
       height="13.984577"
       x="240.77463"
       y="238.77824" />
    <rect
       y="64.810463"
       x="0"
       height="94.184784"
       width="338.66666"
       id="rect1256"
       style="opacity:1;fill:url(#linearGradient1264);fill-opacity:1;stroke:none;stroke-width:12.66611958;stroke-miterlimit:4;stroke-dasharray:none;stroke-dashoffset:0;stroke-opacity:1" />
    <rect
       style="opacity:1;fill:#1d1d1b;fill-opacity:1;stroke:none;stroke-width:14.99999905;stroke-miterlimit:4;stroke-dasharray:none;stroke-dashoffset:0;stroke-opacity:1"
       id="rect899"
       width="254"
       height="190.5"
       x="2.3839409"
       y="95.117287" />
    <text
       xml:space="preserve"
       style="font-style:normal;font-variant:normal;font-weight:normal;font-stretch:normal;font-size:10.58333302px;line-height:20.84916687px;font-family:monospace;-inkscape-font-specification:monospace;letter-spacing:0px;word-spacing:0px;fill:#1e1e1e;fill-opacity:0.00831025;stroke:none;stroke-width:0.26458332;"
       x="334.26526"
       y="186.91936"
       id="text916"><tspan
         sodipodi:role="line"
         id="tspan914"
         x="334.26526"
         y="186.91936"
         style="line-height:20.84916687px;text-align:end;text-anchor:end;stroke-width:0.26458332;fill:#1e1e1e;fill-opacity:0.00831025;">Aufnahme ▶</tspan><tspan
         sodipodi:role="line"
         x="334.26526"
         y="207.76852"
         style="line-height:20.84916687px;text-align:end;text-anchor:end;stroke-width:0.26458332;fill:#1e1e1e;fill-opacity:0.00831025;"
         id="tspan918" /><tspan
         sodipodi:role="line"
         x="334.26526"
         y="228.61769"
         style="line-height:20.84916687px;text-align:end;text-anchor:end;stroke-width:0.26458332;fill:#1e1e1e;fill-opacity:0.00831025;"
         id="tspan946">Ansehen ▶</tspan><tspan
         sodipodi:role="line"
         x="334.26526"
         y="249.46686"
         style="line-height:20.84916687px;text-align:end;text-anchor:end;stroke-width:0.26458332;fill:#1e1e1e;fill-opacity:0.00831025;"
         id="tspan920" /><tspan
         sodipodi:role="line"
         x="334.26526"
         y="270.31601"
         style="line-height:20.84916687px;text-align:end;text-anchor:end;stroke-width:0.26458332;fill:#1e1e1e;fill-opacity:0.00831025;"
         id="tspan950">Stop ▶</tspan></text>
    <rect
       style="opacity:1;fill:#000000;fill-opacity:1;stroke:none;stroke-width:9.92420959;stroke-miterlimit:4;stroke-dasharray:none;stroke-dashoffset:0;stroke-opacity:1"
       id="rect952"
       width="254"
       height="32.720718"
       x="2.3839409"
       y="64.823761" />
    <text
       xml:space="preserve"
       style="font-style:normal;font-variant:normal;font-weight:normal;font-stretch:normal;font-size:10.58333302px;line-height:1.25;font-family:monospace;-inkscape-font-specification:monospace;text-align:center;letter-spacing:0px;word-spacing:0px;text-anchor:middle;fill:#000000;fill-opacity:1;stroke:none;stroke-width:0.26458332"
       x="129.33484"
       y="77.396233"
       id="text958"><tspan
         sodipodi:role="line"
         id="tspan956"
         x="129.33484"
         y="77.396233"
         style="text-align:center;text-anchor:middle;fill:#ffffff;fill-opacity:1;stroke-width:0.26458332">F O T O B O X</tspan><tspan
         sodipodi:role="line"
         x="129.33484"
         y="90.625397"
         style="text-align:center;text-anchor:middle;fill:#ffffff;fill-opacity:1;stroke-width:0.26458332"
         id="tspan960">Beispielveranstaltung</tspan></text>
    <g
       transform="matrix(0.26458333,0,0,0.26458333,195.79163,15.049104)"
       inkscape:label="Layer 1"
       id="layer1-6">
      <path
         inkscape:export-xdpi="90"
         inkscape:export-filename="C:\Documents and Settings\jobrad\My Documents\My Pictures\Clipart\speech bubble.png"
         sodipodi:nodetypes="cccsssscc"
         inkscape:export-ydpi="90"
         d="m 220.74536,71.067549 c -0.91362,5.3842 -4.3102,14.846 15.008,41.418001 -11.94,-1.4484 -25.28645,-9.64275 -27.63545,-15.747752 -4.974,0.64546 -11.07349,71.154862 -60.82094,76.029592 -39.434,3.86412 -659.95706,9.37556 -757.75374,7.76529 -111.97836,-1.84379 -119.43315,-32.61382 -119.22385,-71.98807 0.0893,-16.806016 3.42044,-53.161831 118.26346,-55.521499 213.00872,-4.376669 689.470466,-8.09478 722.32465,-8.09478 39.45646,1.528057 102.67706,-2.750576 109.83787,26.139218 z"
         style="opacity:1;fill:#ffffff;fill-opacity:0.74698792;stroke:#000000;stroke-width:3"
         id="path2816"
         inkscape:connector-curvature="0" />
    </g>
    <text
       xml:space="preserve"
       style="font-style:normal;font-variant:normal;font-weight:normal;font-stretch:normal;font-size:7.55787325px;line-height:1.25;font-family:monospace;-inkscape-font-specification:monospace;letter-spacing:0px;word-spacing:0px;fill:#1e1e1e;fill-opacity:0.00831025;stroke:none;stroke-width:0.18894683;"
       x="3.2058978"
       y="294.06995"
       id="text1268"><tspan
         sodipodi:role="line"
         id="tspan1266"
         x="3.2058978"
         y="294.06995"
         style="fill:#1e1e1e;fill-opacity:0.00831025;stroke-width:0.18894683;">Fotobox 0.2 · © Florian Knodt · BitBastelei//Adlerweb · www.adlerweb.info</tspan></text>
    <rect
       style="opacity:1;fill:#1e1e1e;fill-opacity:0.00831025;stroke:none;stroke-width:11.12495232;stroke-miterlimit:4;stroke-dasharray:none;stroke-dashoffset:0;stroke-opacity:1"
       id="rect159655"
       width="218.28125"
       height="27.78125"
       x="17.197916"
       y="32.416725" />
    <g
       id="layer1-3"
       transform="matrix(0.34604413,0,0,0.34604413,114.87766,-109.68431)">
      <path
         id="path4942-0"
         d="m 490.54601,406.2147 c 22.5791,0 41.0865,18.50734 41.0865,41.08643 0,22.57909 -18.5074,41.08642 -41.0865,41.08642 -22.579,0 -41.0864,-18.50733 -41.0864,-41.08642 0,-22.57909 18.5074,-41.08643 41.0864,-41.08643 z m 31.605,91.65429 c 3.259,-0.002 6.4611,1.80842 8.1384,4.60265 l 37.926,63.20999 c 1.7169,2.86197 1.7639,6.65668 0.119,9.56046 -1.6458,2.90347 -4.9194,4.8022 -8.257,4.79976 h -15.8025 c -2.9306,0 -5.8265,-1.44808 -7.5852,-3.79258 l -9.7578,-13.0171 4.6814,88.98759 c 0.1373,2.56296 -0.8229,5.16803 -2.5877,7.03197 -1.7645,1.86425 -4.3073,2.96114 -6.874,2.96297 h -18.9631 c -2.1993,-0.002 -4.397,-0.80062 -6.084,-2.21239 -1.6867,-1.41146 -2.8498,-3.42521 -3.2394,-5.59 l -3.3184,-18.25196 -3.3185,18.25196 c -0.3899,2.16479 -1.5527,4.17854 -3.2397,5.59 -1.6867,1.41177 -3.8844,2.21056 -6.084,2.21239 h -18.9628 c -2.567,-0.002 -5.1095,-1.09872 -6.874,-2.96297 -1.7647,-1.86394 -2.7265,-4.46901 -2.5876,-7.03197 l 4.6813,-88.98759 -9.7578,13.0171 c -1.7587,2.3445 -4.6549,3.79258 -7.5855,3.79258 h -15.8025 c -3.3373,0.003 -6.6109,-1.89629 -8.2567,-4.79976 -1.6455,-2.90378 -1.5985,-6.69849 0.119,-9.56046 l 37.9261,-63.20999 c 1.6772,-2.79423 4.879,-4.60509 8.1383,-4.60265 h 31.6047 z"
         style="color:#000000;font-style:normal;font-variant:normal;font-weight:normal;font-stretch:normal;line-height:normal;font-family:Sans;-inkscape-font-specification:Sans;text-indent:0;text-align:start;text-decoration:none;text-decoration-line:none;letter-spacing:normal;word-spacing:normal;text-transform:none;writing-mode:lr-tb;direction:ltr;baseline-shift:baseline;text-anchor:start;display:inline;overflow:visible;visibility:visible;fill:#808080;fill-opacity:1;fill-rule:nonzero;stroke:none;stroke-width:15.45291996;marker:none;enable-background:accumulate"
         inkscape:connector-curvature="0" />
    </g>
  </g>
</svg>
